<svg xmlns="http://www.w3.org/2000/svg" xmlns:xlink="http://www.w3.org/1999/xlink" width="700" zoomAndPan="magnify" viewBox="0 0 525 374.999991" height="500" preserveAspectRatio="xMidYMid meet" version="1.0"><defs><g/><clipPath id="ef253dcbaf"><path d="M 6.171875 136.601562 L 150.171875 136.601562 L 150.171875 186 L 6.171875 186 Z M 6.171875 136.601562 " clip-rule="nonzero"/></clipPath><clipPath id="a194537374"><path d="M 78 158 L 143 158 L 143 220.601562 L 78 220.601562 Z M 78 158 " clip-rule="nonzero"/></clipPath></defs><path fill="#07102c" d="M 78.210938 197.5625 C 77.992188 197.5625 77.777344 197.488281 77.5625 197.417969 C 68.351562 193.082031 58.921875 190.917969 49.710938 190.917969 C 44.027344 190.917969 38.195312 191.785156 32.511719 193.371094 C 32.367188 193.445312 32.222656 193.445312 32.082031 193.445312 C 31.648438 193.445312 31.214844 193.226562 30.929688 192.867188 C 30.570312 192.433594 30.425781 191.785156 30.710938 191.207031 L 50.933594 149.386719 C 51.222656 148.878906 51.726562 148.519531 52.300781 148.519531 L 104.046875 148.519531 C 104.621094 148.519531 105.195312 148.878906 105.414062 149.386719 L 125.707031 191.277344 C 125.996094 191.855469 125.921875 192.503906 125.492188 192.9375 C 125.203125 193.300781 124.769531 193.515625 124.339844 193.515625 C 124.195312 193.515625 124.050781 193.515625 123.90625 193.445312 C 118.222656 191.785156 112.394531 190.988281 106.707031 190.988281 C 97.496094 190.988281 88.140625 193.15625 78.859375 197.488281 C 78.640625 197.5625 78.425781 197.5625 78.210938 197.5625 Z M 78.210938 197.5625 " fill-opacity="1" fill-rule="nonzero"/><g clip-path="url(#ef253dcbaf)"><path fill="#232c48" d="M 78.210938 185.5 C 78.066406 185.5 77.921875 185.5 77.777344 185.425781 L 7.253906 162.460938 C 6.605469 162.242188 6.246094 161.664062 6.246094 161.015625 C 6.246094 160.363281 6.675781 159.785156 7.253906 159.570312 L 77.777344 136.675781 C 77.921875 136.601562 78.066406 136.601562 78.210938 136.601562 C 78.355469 136.601562 78.496094 136.601562 78.640625 136.675781 L 149.09375 159.640625 C 149.742188 159.859375 150.101562 160.4375 150.101562 161.085938 C 150.101562 161.738281 149.671875 162.316406 149.09375 162.53125 L 78.640625 185.5 C 78.496094 185.5 78.355469 185.5 78.210938 185.5 Z M 78.210938 185.5 " fill-opacity="1" fill-rule="nonzero"/></g><g clip-path="url(#a194537374)"><path fill="#f3be0d" d="M 142.332031 214.027344 C 142.332031 210.996094 142.257812 206.660156 141.972656 201.824219 C 141.753906 198.574219 141.179688 194.527344 140.460938 190.554688 C 139.882812 187.449219 139.308594 184.34375 138.730469 181.816406 C 139.738281 181.164062 140.386719 179.9375 140.316406 178.492188 C 140.242188 176.90625 139.378906 175.675781 138.230469 175.171875 L 138.230469 165.855469 C 138.230469 165.347656 137.867188 164.914062 137.363281 164.914062 L 78.425781 158.703125 L 78.210938 160.652344 L 136.285156 166.792969 L 136.285156 175.316406 C 134.988281 175.820312 134.125 177.195312 134.199219 178.855469 C 134.269531 180.15625 134.847656 181.308594 135.78125 181.886719 C 135.207031 184.417969 134.628906 187.523438 134.054688 190.628906 C 133.335938 194.601562 132.757812 198.644531 132.542969 201.894531 C 132.253906 206.734375 132.183594 210.996094 132.183594 214.101562 C 132.183594 217.136719 132.253906 219.011719 132.253906 219.011719 C 132.253906 220.097656 134.773438 220.601562 137.363281 220.601562 C 139.882812 220.601562 142.472656 220.097656 142.472656 219.011719 C 142.257812 218.941406 142.332031 217.136719 142.332031 214.027344 Z M 142.332031 214.027344 " fill-opacity="1" fill-rule="nonzero"/></g><path fill="#111a36" d="M 85.261719 159.640625 C 85.261719 161.085938 82.3125 163.035156 78.640625 163.035156 C 74.972656 163.035156 72.019531 161.085938 72.019531 159.640625 C 72.019531 158.199219 74.972656 157.835938 78.640625 157.835938 C 82.3125 157.765625 85.261719 158.199219 85.261719 159.640625 Z M 85.261719 159.640625 " fill-opacity="1" fill-rule="nonzero"/><path fill="#2b3450" d="M 85.261719 159.640625 C 85.261719 159.8125 85.21875 159.980469 85.136719 160.148438 C 85.050781 160.316406 84.925781 160.480469 84.757812 160.636719 C 84.59375 160.796875 84.386719 160.945312 84.148438 161.085938 C 83.90625 161.230469 83.628906 161.359375 83.324219 161.480469 C 83.015625 161.601562 82.679688 161.710938 82.320312 161.804688 C 81.957031 161.898438 81.578125 161.980469 81.175781 162.042969 C 80.773438 162.109375 80.359375 162.160156 79.933594 162.191406 C 79.507812 162.226562 79.078125 162.242188 78.640625 162.242188 C 78.207031 162.242188 77.777344 162.226562 77.351562 162.191406 C 76.921875 162.160156 76.507812 162.109375 76.109375 162.042969 C 75.707031 161.980469 75.324219 161.898438 74.964844 161.804688 C 74.601562 161.710938 74.265625 161.601562 73.960938 161.480469 C 73.652344 161.359375 73.378906 161.230469 73.136719 161.085938 C 72.894531 160.945312 72.691406 160.796875 72.523438 160.636719 C 72.359375 160.480469 72.234375 160.316406 72.148438 160.148438 C 72.0625 159.980469 72.019531 159.8125 72.019531 159.640625 C 72.019531 159.472656 72.0625 159.300781 72.148438 159.136719 C 72.234375 158.96875 72.359375 158.804688 72.523438 158.648438 C 72.691406 158.488281 72.894531 158.339844 73.136719 158.199219 C 73.378906 158.054688 73.652344 157.925781 73.960938 157.804688 C 74.265625 157.683594 74.601562 157.574219 74.964844 157.480469 C 75.324219 157.386719 75.707031 157.304688 76.109375 157.238281 C 76.507812 157.175781 76.921875 157.125 77.351562 157.09375 C 77.777344 157.058594 78.207031 157.042969 78.640625 157.042969 C 79.078125 157.042969 79.507812 157.058594 79.933594 157.09375 C 80.359375 157.125 80.773438 157.175781 81.175781 157.238281 C 81.578125 157.304688 81.957031 157.386719 82.320312 157.480469 C 82.679688 157.574219 83.015625 157.683594 83.324219 157.804688 C 83.628906 157.925781 83.90625 158.054688 84.148438 158.199219 C 84.386719 158.339844 84.59375 158.488281 84.757812 158.648438 C 84.925781 158.804688 85.050781 158.96875 85.136719 159.136719 C 85.21875 159.300781 85.261719 159.472656 85.261719 159.640625 Z M 85.261719 159.640625 " fill-opacity="1" fill-rule="nonzero"/><g fill="#38b6ff" fill-opacity="1"><g transform="translate(164.762393, 183.968014)"><g><path d="M 19.484375 -22.65625 C 21.429688 -21.332031 22.96875 -19.597656 24.09375 -17.453125 C 25.226562 -15.316406 25.675781 -13.066406 25.4375 -10.703125 C 25.1875 -8.617188 24.46875 -6.816406 23.28125 -5.296875 C 22.101562 -3.785156 20.648438 -2.617188 18.921875 -1.796875 C 17.203125 -0.984375 15.375 -0.53125 13.4375 -0.4375 C 11.507812 -0.351562 9.65625 -0.675781 7.875 -1.40625 C 6.101562 -2.132812 4.609375 -3.300781 3.390625 -4.90625 C 2.765625 -5.738281 2.503906 -6.519531 2.609375 -7.25 C 2.710938 -7.988281 3.035156 -8.632812 3.578125 -9.1875 C 4.117188 -9.75 4.785156 -10.140625 5.578125 -10.359375 C 6.378906 -10.585938 7.191406 -10.597656 8.015625 -10.390625 C 8.835938 -10.179688 9.539062 -9.675781 10.125 -8.875 C 10.40625 -8.488281 10.925781 -8.269531 11.6875 -8.21875 C 12.457031 -8.164062 13.222656 -8.203125 13.984375 -8.328125 C 14.753906 -8.453125 15.296875 -8.582031 15.609375 -8.71875 C 16.335938 -9.070312 16.882812 -9.585938 17.25 -10.265625 C 17.625 -10.941406 17.757812 -11.679688 17.65625 -12.484375 C 17.550781 -13.453125 17.203125 -14.257812 16.609375 -14.90625 C 16.015625 -15.550781 15.304688 -16.097656 14.484375 -16.546875 C 13.671875 -17.003906 12.84375 -17.445312 12 -17.875 C 11.164062 -18.3125 10.4375 -18.796875 9.8125 -19.328125 C 8.070312 -20.859375 7.007812 -22.523438 6.625 -24.328125 C 6.25 -26.140625 6.378906 -27.929688 7.015625 -29.703125 C 7.660156 -31.484375 8.660156 -33.101562 10.015625 -34.5625 C 11.378906 -36.03125 12.929688 -37.179688 14.671875 -38.015625 C 15.609375 -38.429688 16.476562 -38.539062 17.28125 -38.34375 C 18.082031 -38.15625 18.769531 -37.765625 19.34375 -37.171875 C 19.914062 -36.585938 20.304688 -35.910156 20.515625 -35.140625 C 20.722656 -34.378906 20.6875 -33.648438 20.40625 -32.953125 C 20.132812 -32.253906 19.546875 -31.679688 18.640625 -31.234375 C 18.046875 -30.953125 17.359375 -30.566406 16.578125 -30.078125 C 15.796875 -29.585938 15.148438 -29.003906 14.640625 -28.328125 C 14.140625 -27.648438 14.046875 -26.894531 14.359375 -26.0625 C 14.535156 -25.5 14.941406 -25.015625 15.578125 -24.609375 C 16.222656 -24.210938 16.910156 -23.859375 17.640625 -23.546875 C 18.378906 -23.234375 18.992188 -22.9375 19.484375 -22.65625 Z M 19.484375 -22.65625 "/></g></g></g><g fill="#38b6ff" fill-opacity="1"><g transform="translate(192.851693, 183.968014)"><g><path d="M 23.8125 -35.921875 C 24.789062 -35.816406 25.570312 -35.457031 26.15625 -34.84375 C 26.75 -34.238281 27.148438 -33.535156 27.359375 -32.734375 C 27.566406 -31.941406 27.566406 -31.171875 27.359375 -30.421875 C 27.148438 -29.671875 26.75 -29.066406 26.15625 -28.609375 C 25.570312 -28.160156 24.789062 -28.003906 23.8125 -28.140625 C 22.175781 -28.347656 20.503906 -28.503906 18.796875 -28.609375 C 18.554688 -24.785156 18.320312 -20.972656 18.09375 -17.171875 C 17.863281 -13.378906 17.628906 -9.585938 17.390625 -5.796875 C 17.359375 -4.785156 17.050781 -3.972656 16.46875 -3.359375 C 15.894531 -2.753906 15.21875 -2.351562 14.4375 -2.15625 C 13.65625 -1.96875 12.878906 -1.96875 12.109375 -2.15625 C 11.347656 -2.351562 10.722656 -2.753906 10.234375 -3.359375 C 9.742188 -3.972656 9.519531 -4.785156 9.5625 -5.796875 C 9.800781 -9.585938 10.03125 -13.394531 10.25 -17.21875 C 10.476562 -21.050781 10.71875 -24.867188 10.96875 -28.671875 C 9.394531 -28.628906 7.863281 -28.523438 6.375 -28.359375 C 5.363281 -28.285156 4.550781 -28.472656 3.9375 -28.921875 C 3.332031 -29.378906 2.929688 -29.988281 2.734375 -30.75 C 2.546875 -31.519531 2.554688 -32.304688 2.765625 -33.109375 C 2.972656 -33.910156 3.375 -34.597656 3.96875 -35.171875 C 4.5625 -35.742188 5.363281 -36.082031 6.375 -36.1875 C 12.1875 -36.78125 18 -36.691406 23.8125 -35.921875 Z M 23.8125 -35.921875 "/></g></g></g><g fill="#38b6ff" fill-opacity="1"><g transform="translate(222.9772, 183.968014)"><g><path d="M 4.953125 -32.21875 C 5.066406 -33.195312 5.414062 -33.988281 6 -34.59375 C 6.59375 -35.207031 7.289062 -35.609375 8.09375 -35.796875 C 8.894531 -35.984375 9.675781 -35.984375 10.4375 -35.796875 C 11.207031 -35.609375 11.816406 -35.21875 12.265625 -34.625 C 12.722656 -34.03125 12.898438 -33.226562 12.796875 -32.21875 C 11.785156 -22.78125 11 -13.328125 10.4375 -3.859375 C 10.375 -2.847656 10.0625 -2.046875 9.5 -1.453125 C 8.945312 -0.867188 8.273438 -0.472656 7.484375 -0.265625 C 6.703125 -0.0546875 5.925781 -0.0546875 5.15625 -0.265625 C 4.394531 -0.472656 3.757812 -0.867188 3.25 -1.453125 C 2.75 -2.046875 2.535156 -2.847656 2.609375 -3.859375 C 3.171875 -13.328125 3.953125 -22.78125 4.953125 -32.21875 Z M 4.953125 -32.21875 "/></g></g></g><g fill="#38b6ff" fill-opacity="1"><g transform="translate(238.431543, 183.968014)"><g><path d="M 4.953125 -32.21875 C 5.066406 -33.195312 5.414062 -33.988281 6 -34.59375 C 6.59375 -35.207031 7.289062 -35.609375 8.09375 -35.796875 C 8.894531 -35.984375 9.675781 -35.984375 10.4375 -35.796875 C 11.207031 -35.609375 11.816406 -35.21875 12.265625 -34.625 C 12.722656 -34.03125 12.898438 -33.226562 12.796875 -32.21875 C 11.785156 -22.78125 11 -13.328125 10.4375 -3.859375 C 10.375 -2.847656 10.0625 -2.046875 9.5 -1.453125 C 8.945312 -0.867188 8.273438 -0.472656 7.484375 -0.265625 C 6.703125 -0.0546875 5.925781 -0.0546875 5.15625 -0.265625 C 4.394531 -0.472656 3.757812 -0.867188 3.25 -1.453125 C 2.75 -2.046875 2.535156 -2.847656 2.609375 -3.859375 C 3.171875 -13.328125 3.953125 -22.78125 4.953125 -32.21875 Z M 4.953125 -32.21875 "/></g></g></g><g fill="#38b6ff" fill-opacity="1"><g transform="translate(253.885886, 183.968014)"><g/></g></g><g fill="#38b6ff" fill-opacity="1"><g transform="translate(269.757919, 183.968014)"><g><path d="M 21.78125 -11.078125 C 22.789062 -11.035156 23.597656 -10.742188 24.203125 -10.203125 C 24.804688 -9.671875 25.203125 -9.007812 25.390625 -8.21875 C 25.585938 -7.4375 25.585938 -6.65625 25.390625 -5.875 C 25.203125 -5.09375 24.804688 -4.445312 24.203125 -3.9375 C 23.597656 -3.4375 22.789062 -3.222656 21.78125 -3.296875 C 19.40625 -3.359375 17.035156 -3.335938 14.671875 -3.234375 C 12.304688 -3.128906 9.941406 -2.882812 7.578125 -2.5 C 6.835938 -2.363281 6.066406 -2.425781 5.265625 -2.6875 C 4.472656 -2.945312 3.804688 -3.375 3.265625 -3.96875 C 2.722656 -4.5625 2.519531 -5.328125 2.65625 -6.265625 C 3.25 -11.109375 3.898438 -15.929688 4.609375 -20.734375 C 5.328125 -25.535156 6.101562 -30.320312 6.9375 -35.09375 C 7.050781 -35.6875 7.265625 -36.207031 7.578125 -36.65625 C 7.847656 -37.144531 8.242188 -37.546875 8.765625 -37.859375 C 9.296875 -38.171875 9.941406 -38.34375 10.703125 -38.375 C 14.460938 -38.519531 18.222656 -38.453125 21.984375 -38.171875 C 22.992188 -38.097656 23.800781 -37.773438 24.40625 -37.203125 C 25.019531 -36.628906 25.421875 -35.953125 25.609375 -35.171875 C 25.804688 -34.390625 25.804688 -33.613281 25.609375 -32.84375 C 25.421875 -32.082031 25.019531 -31.457031 24.40625 -30.96875 C 23.800781 -30.476562 22.992188 -30.269531 21.984375 -30.34375 C 19.410156 -30.507812 16.78125 -30.59375 14.09375 -30.59375 C 13.925781 -29.582031 13.753906 -28.570312 13.578125 -27.5625 C 13.398438 -26.5625 13.242188 -25.554688 13.109375 -24.546875 C 14.535156 -24.503906 15.910156 -24.429688 17.234375 -24.328125 C 18.273438 -24.191406 19.1875 -23.789062 19.96875 -23.125 C 20.757812 -22.46875 21.15625 -21.566406 21.15625 -20.421875 C 21.15625 -19.753906 20.96875 -19.109375 20.59375 -18.484375 C 20.226562 -17.859375 19.75 -17.351562 19.15625 -16.96875 C 18.570312 -16.582031 17.929688 -16.425781 17.234375 -16.5 C 15.453125 -16.675781 13.675781 -16.742188 11.90625 -16.703125 C 11.769531 -15.734375 11.628906 -14.75 11.484375 -13.75 C 11.347656 -12.757812 11.210938 -11.757812 11.078125 -10.75 C 12.847656 -10.925781 14.617188 -11.050781 16.390625 -11.125 C 18.171875 -11.195312 19.96875 -11.179688 21.78125 -11.078125 Z M 21.78125 -11.078125 "/></g></g></g><g fill="#38b6ff" fill-opacity="1"><g transform="translate(298.108285, 183.968014)"><g><path d="M 22.609375 -32.328125 C 24.390625 -30.722656 25.765625 -28.816406 26.734375 -26.609375 C 27.710938 -24.398438 28.0625 -22.078125 27.78125 -19.640625 C 27.539062 -17.617188 26.890625 -15.726562 25.828125 -13.96875 C 24.765625 -12.207031 23.46875 -10.6875 21.9375 -9.40625 C 20.226562 -7.9375 18.210938 -6.757812 15.890625 -5.875 C 13.578125 -4.988281 11.363281 -4.195312 9.25 -3.5 C 8.65625 -3.289062 8.050781 -3.125 7.4375 -3 C 6.832031 -2.875 6.234375 -2.847656 5.640625 -2.921875 C 4.804688 -3.023438 4.082031 -3.414062 3.46875 -4.09375 C 2.863281 -4.78125 2.578125 -5.539062 2.609375 -6.375 C 2.847656 -15.84375 3.316406 -25.328125 4.015625 -34.828125 C 4.085938 -35.910156 4.445312 -36.664062 5.09375 -37.09375 C 5.738281 -37.53125 6.503906 -37.757812 7.390625 -37.78125 C 8.273438 -37.800781 9.132812 -37.738281 9.96875 -37.59375 C 10.457031 -37.53125 10.910156 -37.460938 11.328125 -37.390625 C 13.378906 -36.972656 15.363281 -36.390625 17.28125 -35.640625 C 19.195312 -34.890625 20.972656 -33.785156 22.609375 -32.328125 Z M 19.6875 -19.21875 C 20.175781 -20.613281 20.253906 -21.882812 19.921875 -23.03125 C 19.585938 -24.175781 18.984375 -25.164062 18.109375 -26 C 17.242188 -26.84375 16.21875 -27.539062 15.03125 -28.09375 C 13.851562 -28.644531 12.65625 -29.0625 11.4375 -29.34375 C 11.082031 -23.632812 10.800781 -17.960938 10.59375 -12.328125 C 11.882812 -12.742188 13.128906 -13.21875 14.328125 -13.75 C 15.535156 -14.289062 16.609375 -14.988281 17.546875 -15.84375 C 18.484375 -16.695312 19.195312 -17.820312 19.6875 -19.21875 Z M 19.6875 -19.21875 "/></g></g></g><g fill="#38b6ff" fill-opacity="1"><g transform="translate(328.599281, 183.968014)"><g><path d="M 30.546875 -29.65625 C 30.753906 -27.78125 30.769531 -25.734375 30.59375 -23.515625 C 30.425781 -21.304688 30.023438 -19.097656 29.390625 -16.890625 C 28.765625 -14.679688 27.882812 -12.628906 26.75 -10.734375 C 25.625 -8.835938 24.234375 -7.234375 22.578125 -5.921875 C 20.929688 -4.617188 19.007812 -3.773438 16.8125 -3.390625 C 14.519531 -3.003906 12.5625 -3.175781 10.9375 -3.90625 C 9.320312 -4.644531 7.984375 -5.78125 6.921875 -7.3125 C 5.859375 -8.84375 5.015625 -10.597656 4.390625 -12.578125 C 3.765625 -14.566406 3.316406 -16.640625 3.046875 -18.796875 C 2.785156 -20.953125 2.644531 -23.015625 2.625 -24.984375 C 2.613281 -26.953125 2.660156 -28.6875 2.765625 -30.1875 C 2.835938 -31.15625 3.160156 -31.941406 3.734375 -32.546875 C 4.304688 -33.160156 4.984375 -33.570312 5.765625 -33.78125 C 6.546875 -33.988281 7.320312 -33.988281 8.09375 -33.78125 C 8.863281 -33.570312 9.488281 -33.171875 9.96875 -32.578125 C 10.457031 -31.992188 10.664062 -31.195312 10.59375 -30.1875 C 10.5625 -29.664062 10.523438 -28.773438 10.484375 -27.515625 C 10.453125 -26.265625 10.472656 -24.847656 10.546875 -23.265625 C 10.617188 -21.679688 10.765625 -20.085938 10.984375 -18.484375 C 11.210938 -16.878906 11.546875 -15.453125 11.984375 -14.203125 C 12.421875 -12.953125 13.003906 -12.046875 13.734375 -11.484375 C 14.460938 -10.929688 15.382812 -10.914062 16.5 -11.4375 C 18.03125 -12.164062 19.25 -13.242188 20.15625 -14.671875 C 21.0625 -16.097656 21.722656 -17.695312 22.140625 -19.46875 C 22.554688 -21.25 22.796875 -23.035156 22.859375 -24.828125 C 22.929688 -26.617188 22.882812 -28.226562 22.71875 -29.65625 C 22.570312 -30.632812 22.722656 -31.425781 23.171875 -32.03125 C 23.628906 -32.644531 24.234375 -33.046875 24.984375 -33.234375 C 25.734375 -33.429688 26.507812 -33.421875 27.3125 -33.203125 C 28.113281 -32.992188 28.816406 -32.59375 29.421875 -32 C 30.035156 -31.414062 30.410156 -30.632812 30.546875 -29.65625 Z M 30.546875 -29.65625 "/></g></g></g><g fill="#ffbf00" fill-opacity="1"><g transform="translate(361.911392, 183.968014)"><g><path d="M 23.703125 -21.78125 C 26.035156 -21.8125 27.828125 -21.25 29.078125 -20.09375 C 30.335938 -18.945312 30.914062 -17.175781 30.8125 -14.78125 C 30.738281 -12.6875 30.207031 -10.691406 29.21875 -8.796875 C 28.226562 -6.898438 26.878906 -5.359375 25.171875 -4.171875 C 23.285156 -2.847656 21.238281 -2.148438 19.03125 -2.078125 C 16.820312 -2.015625 14.65625 -2.296875 12.53125 -2.921875 C 9.957031 -3.648438 7.90625 -4.789062 6.375 -6.34375 C 4.84375 -7.894531 3.785156 -9.710938 3.203125 -11.796875 C 2.628906 -13.890625 2.457031 -16.082031 2.6875 -18.375 C 2.914062 -20.675781 3.488281 -22.957031 4.40625 -25.21875 C 5.332031 -27.476562 6.523438 -29.566406 7.984375 -31.484375 C 9.453125 -33.398438 11.132812 -35.007812 13.03125 -36.3125 C 14.925781 -37.625 16.976562 -38.46875 19.1875 -38.84375 C 21.394531 -39.226562 23.664062 -39.003906 26 -38.171875 C 26.976562 -37.859375 27.675781 -37.34375 28.09375 -36.625 C 28.507812 -35.914062 28.707031 -35.148438 28.6875 -34.328125 C 28.675781 -33.515625 28.476562 -32.765625 28.09375 -32.078125 C 27.707031 -31.398438 27.15625 -30.90625 26.4375 -30.59375 C 25.726562 -30.28125 24.90625 -30.300781 23.96875 -30.65625 C 22.300781 -31.207031 20.691406 -31.195312 19.140625 -30.625 C 17.585938 -30.050781 16.175781 -29.082031 14.90625 -27.71875 C 13.632812 -26.363281 12.597656 -24.820312 11.796875 -23.09375 C 10.992188 -21.375 10.503906 -19.632812 10.328125 -17.875 C 10.160156 -16.125 10.410156 -14.570312 11.078125 -13.21875 C 11.453125 -12.414062 12.066406 -11.734375 12.921875 -11.171875 C 13.773438 -10.617188 14.734375 -10.226562 15.796875 -10 C 16.859375 -9.769531 17.882812 -9.734375 18.875 -9.890625 C 19.863281 -10.046875 20.691406 -10.457031 21.359375 -11.125 C 21.847656 -11.644531 22.25 -12.269531 22.5625 -13 C 22.59375 -13.101562 22.613281 -13.234375 22.625 -13.390625 C 22.644531 -13.546875 22.675781 -13.710938 22.71875 -13.890625 C 22.675781 -13.890625 22.628906 -13.890625 22.578125 -13.890625 C 22.523438 -13.890625 22.484375 -13.890625 22.453125 -13.890625 C 22.316406 -13.890625 22.1875 -13.890625 22.0625 -13.890625 C 21.9375 -13.890625 21.804688 -13.890625 21.671875 -13.890625 C 21.078125 -13.265625 20.3125 -12.875 19.375 -12.71875 C 18.4375 -12.5625 17.519531 -12.679688 16.625 -13.078125 C 15.738281 -13.484375 15.101562 -14.222656 14.71875 -15.296875 C 14.195312 -16.796875 14.179688 -17.976562 14.671875 -18.84375 C 15.160156 -19.71875 15.9375 -20.351562 17 -20.75 C 18.0625 -21.15625 19.207031 -21.414062 20.4375 -21.53125 C 21.675781 -21.65625 22.765625 -21.738281 23.703125 -21.78125 Z M 23.703125 -21.78125 "/></g></g></g><g fill="#ffbf00" fill-opacity="1"><g transform="translate(395.326177, 183.968014)"><g><path d="M 30.546875 -29.65625 C 30.753906 -27.78125 30.769531 -25.734375 30.59375 -23.515625 C 30.425781 -21.304688 30.023438 -19.097656 29.390625 -16.890625 C 28.765625 -14.679688 27.882812 -12.628906 26.75 -10.734375 C 25.625 -8.835938 24.234375 -7.234375 22.578125 -5.921875 C 20.929688 -4.617188 19.007812 -3.773438 16.8125 -3.390625 C 14.519531 -3.003906 12.5625 -3.175781 10.9375 -3.90625 C 9.320312 -4.644531 7.984375 -5.78125 6.921875 -7.3125 C 5.859375 -8.84375 5.015625 -10.597656 4.390625 -12.578125 C 3.765625 -14.566406 3.316406 -16.640625 3.046875 -18.796875 C 2.785156 -20.953125 2.644531 -23.015625 2.625 -24.984375 C 2.613281 -26.953125 2.660156 -28.6875 2.765625 -30.1875 C 2.835938 -31.15625 3.160156 -31.941406 3.734375 -32.546875 C 4.304688 -33.160156 4.984375 -33.570312 5.765625 -33.78125 C 6.546875 -33.988281 7.320312 -33.988281 8.09375 -33.78125 C 8.863281 -33.570312 9.488281 -33.171875 9.96875 -32.578125 C 10.457031 -31.992188 10.664062 -31.195312 10.59375 -30.1875 C 10.5625 -29.664062 10.523438 -28.773438 10.484375 -27.515625 C 10.453125 -26.265625 10.472656 -24.847656 10.546875 -23.265625 C 10.617188 -21.679688 10.765625 -20.085938 10.984375 -18.484375 C 11.210938 -16.878906 11.546875 -15.453125 11.984375 -14.203125 C 12.421875 -12.953125 13.003906 -12.046875 13.734375 -11.484375 C 14.460938 -10.929688 15.382812 -10.914062 16.5 -11.4375 C 18.03125 -12.164062 19.25 -13.242188 20.15625 -14.671875 C 21.0625 -16.097656 21.722656 -17.695312 22.140625 -19.46875 C 22.554688 -21.25 22.796875 -23.035156 22.859375 -24.828125 C 22.929688 -26.617188 22.882812 -28.226562 22.71875 -29.65625 C 22.570312 -30.632812 22.722656 -31.425781 23.171875 -32.03125 C 23.628906 -32.644531 24.234375 -33.046875 24.984375 -33.234375 C 25.734375 -33.429688 26.507812 -33.421875 27.3125 -33.203125 C 28.113281 -32.992188 28.816406 -32.59375 29.421875 -32 C 30.035156 -31.414062 30.410156 -30.632812 30.546875 -29.65625 Z M 30.546875 -29.65625 "/></g></g></g><g fill="#ffbf00" fill-opacity="1"><g transform="translate(428.636539, 183.968014)"><g><path d="M 4.953125 -32.171875 C 5.066406 -33.140625 5.414062 -33.921875 6 -34.515625 C 6.59375 -35.109375 7.289062 -35.507812 8.09375 -35.71875 C 8.894531 -35.925781 9.675781 -35.929688 10.4375 -35.734375 C 11.207031 -35.546875 11.816406 -35.144531 12.265625 -34.53125 C 12.722656 -33.925781 12.898438 -33.140625 12.796875 -32.171875 C 11.785156 -22.734375 11 -13.28125 10.4375 -3.8125 C 10.375 -2.800781 10.0625 -1.988281 9.5 -1.375 C 8.945312 -0.769531 8.273438 -0.367188 7.484375 -0.171875 C 6.703125 0.015625 5.925781 0.015625 5.15625 -0.171875 C 4.394531 -0.367188 3.757812 -0.769531 3.25 -1.375 C 2.75 -1.988281 2.535156 -2.800781 2.609375 -3.8125 C 3.171875 -13.28125 3.953125 -22.734375 4.953125 -32.171875 Z M 4.953125 -32.171875 "/></g></g></g><g fill="#ffbf00" fill-opacity="1"><g transform="translate(444.090882, 183.968014)"><g><path d="M 22.609375 -32.328125 C 24.390625 -30.722656 25.765625 -28.816406 26.734375 -26.609375 C 27.710938 -24.398438 28.0625 -22.078125 27.78125 -19.640625 C 27.539062 -17.617188 26.890625 -15.726562 25.828125 -13.96875 C 24.765625 -12.207031 23.46875 -10.6875 21.9375 -9.40625 C 20.226562 -7.9375 18.210938 -6.757812 15.890625 -5.875 C 13.578125 -4.988281 11.363281 -4.195312 9.25 -3.5 C 8.65625 -3.289062 8.050781 -3.125 7.4375 -3 C 6.832031 -2.875 6.234375 -2.847656 5.640625 -2.921875 C 4.804688 -3.023438 4.082031 -3.414062 3.46875 -4.09375 C 2.863281 -4.78125 2.578125 -5.539062 2.609375 -6.375 C 2.847656 -15.84375 3.316406 -25.328125 4.015625 -34.828125 C 4.085938 -35.910156 4.445312 -36.664062 5.09375 -37.09375 C 5.738281 -37.53125 6.503906 -37.757812 7.390625 -37.78125 C 8.273438 -37.800781 9.132812 -37.738281 9.96875 -37.59375 C 10.457031 -37.53125 10.910156 -37.460938 11.328125 -37.390625 C 13.378906 -36.972656 15.363281 -36.390625 17.28125 -35.640625 C 19.195312 -34.890625 20.972656 -33.785156 22.609375 -32.328125 Z M 19.6875 -19.21875 C 20.175781 -20.613281 20.253906 -21.882812 19.921875 -23.03125 C 19.585938 -24.175781 18.984375 -25.164062 18.109375 -26 C 17.242188 -26.84375 16.21875 -27.539062 15.03125 -28.09375 C 13.851562 -28.644531 12.65625 -29.0625 11.4375 -29.34375 C 11.082031 -23.632812 10.800781 -17.960938 10.59375 -12.328125 C 11.882812 -12.742188 13.128906 -13.21875 14.328125 -13.75 C 15.535156 -14.289062 16.609375 -14.988281 17.546875 -15.84375 C 18.484375 -16.695312 19.195312 -17.820312 19.6875 -19.21875 Z M 19.6875 -19.21875 "/></g></g></g><g fill="#ffbf00" fill-opacity="1"><g transform="translate(474.581878, 183.968014)"><g><path d="M 21.78125 -11.015625 C 22.789062 -10.984375 23.597656 -10.6875 24.203125 -10.125 C 24.804688 -9.570312 25.203125 -8.898438 25.390625 -8.109375 C 25.585938 -7.328125 25.585938 -6.550781 25.390625 -5.78125 C 25.203125 -5.019531 24.804688 -4.390625 24.203125 -3.890625 C 23.597656 -3.390625 22.789062 -3.15625 21.78125 -3.1875 C 19.40625 -3.289062 17.035156 -3.28125 14.671875 -3.15625 C 12.304688 -3.03125 9.941406 -2.78125 7.578125 -2.40625 C 6.835938 -2.300781 6.066406 -2.378906 5.265625 -2.640625 C 4.472656 -2.898438 3.804688 -3.320312 3.265625 -3.90625 C 2.722656 -4.5 2.519531 -5.269531 2.65625 -6.21875 C 3.25 -11.019531 3.898438 -15.820312 4.609375 -20.625 C 5.328125 -25.425781 6.101562 -30.226562 6.9375 -35.03125 C 7.050781 -35.625 7.265625 -36.128906 7.578125 -36.546875 C 7.847656 -37.035156 8.242188 -37.445312 8.765625 -37.78125 C 9.296875 -38.113281 9.941406 -38.296875 10.703125 -38.328125 C 14.460938 -38.429688 18.222656 -38.363281 21.984375 -38.125 C 22.992188 -38.050781 23.800781 -37.726562 24.40625 -37.15625 C 25.019531 -36.582031 25.421875 -35.898438 25.609375 -35.109375 C 25.804688 -34.328125 25.804688 -33.550781 25.609375 -32.78125 C 25.421875 -32.019531 25.019531 -31.394531 24.40625 -30.90625 C 23.800781 -30.425781 22.992188 -30.21875 21.984375 -30.28125 C 19.410156 -30.457031 16.78125 -30.546875 14.09375 -30.546875 C 13.925781 -29.535156 13.753906 -28.523438 13.578125 -27.515625 C 13.398438 -26.503906 13.242188 -25.492188 13.109375 -24.484375 C 14.535156 -24.453125 15.910156 -24.367188 17.234375 -24.234375 C 18.273438 -24.128906 19.1875 -23.734375 19.96875 -23.046875 C 20.757812 -22.367188 21.15625 -21.457031 21.15625 -20.3125 C 21.15625 -19.65625 20.96875 -19.007812 20.59375 -18.375 C 20.226562 -17.75 19.75 -17.242188 19.15625 -16.859375 C 18.570312 -16.484375 17.929688 -16.328125 17.234375 -16.390625 C 15.453125 -16.566406 13.675781 -16.65625 11.90625 -16.65625 C 11.769531 -15.6875 11.628906 -14.695312 11.484375 -13.6875 C 11.347656 -12.675781 11.210938 -11.679688 11.078125 -10.703125 C 12.847656 -10.878906 14.617188 -10.992188 16.390625 -11.046875 C 18.171875 -11.097656 19.96875 -11.085938 21.78125 -11.015625 Z M 21.78125 -11.015625 "/></g></g></g></svg>